<?xml version="1.0" standalone="no"?>
<!DOCTYPE svg PUBLIC "-//W3C//DTD SVG 20010904//EN"
 "http://www.w3.org/TR/2001/REC-SVG-20010904/DTD/svg10.dtd">
<svg version="1.0" xmlns="http://www.w3.org/2000/svg"
 width="700.000000pt" height="700.000000pt" viewBox="0 0 700.000000 700.000000"
 preserveAspectRatio="xMidYMid meet">
<metadata>
Created by potrace 1.14, written by Peter Selinger 2001-2017
</metadata>
<g transform="translate(0.000000,700.000000) scale(0.100000,-0.100000)"
fill="#000000" stroke="none">
<path d="M3309 6956 c-2 -2 -44 -6 -94 -10 -97 -7 -150 -12 -205 -22 -19 -3
-50 -8 -67 -10 -18 -2 -86 -15 -150 -28 -838 -170 -1608 -675 -2113 -1386 -55
-77 -134 -202 -210 -330 -24 -41 -131 -263 -154 -320 -15 -36 -31 -74 -36 -85
-38 -80 -139 -420 -165 -550 -19 -98 -36 -196 -41 -240 -3 -27 -7 -55 -9 -62
-26 -83 -26 -699 0 -838 4 -16 8 -47 10 -70 2 -22 9 -67 15 -100 6 -33 13 -73
16 -90 11 -64 74 -304 103 -393 187 -568 527 -1094 962 -1487 111 -100 126
-112 229 -191 260 -200 588 -383 880 -491 67 -25 273 -92 300 -98 8 -2 51 -12
95 -23 160 -41 331 -70 520 -89 99 -10 524 -10 625 0 67 7 102 11 240 32 50 7
91 14 120 21 14 3 36 8 50 10 14 3 33 7 42 10 9 3 25 7 35 9 145 29 422 120
551 180 29 14 55 25 58 25 14 0 270 134 364 190 664 398 1182 1011 1457 1725
77 202 153 472 178 635 3 19 7 46 10 60 4 22 10 63 20 140 20 143 27 529 13
705 -7 85 -33 283 -43 329 -3 12 -7 32 -9 46 -10 57 -40 182 -68 280 -268 943
-917 1723 -1800 2162 -75 37 -140 68 -142 68 -3 0 -29 11 -58 24 -194 86 -597
200 -786 221 -26 3 -54 8 -62 10 -8 2 -40 7 -70 11 -30 3 -73 8 -95 10 -48 6
-511 15 -516 10z"/>
</g>
</svg>
